<svg width="729" height="643" viewBox="0 0 729 643" fill="none" xmlns="http://www.w3.org/2000/svg">
<path d="M729 0V642.352H0V0H729ZM11.8167 633.552H716.729L718.092 632.424V10.1531L716.729 9.02496H11.8167V633.552Z" fill="#263B7F"/>
<path d="M656.509 63.1748V578.952H75.6724V63.1748H656.509ZM649.01 69.2667H84.0804V573.311H649.237V69.2667H649.01Z" fill="#263B7F"/>
<path d="M480.395 285.189H446.535L388.133 220.886L386.77 218.178H420.629L431.764 230.137C452.898 196.293 418.13 155.681 380.862 173.279C340.185 192.683 361.091 256.986 406.313 248.186L425.629 269.395C373.59 289.701 321.324 250.443 332.231 194.262C341.776 145.979 404.495 127.929 441.763 157.711C470.623 180.725 474.259 223.819 450.853 252.022L480.395 285.64V285.189Z" fill="#263B7F"/>
<path d="M331.322 271.426H299.735L260.877 203.287H283.601C283.601 203.287 289.055 201.482 289.737 201.257C301.326 195.842 301.326 178.469 289.737 173.279C289.055 172.828 283.828 171.249 283.601 171.249H258.15V271.426H230.426V146.881L231.789 145.528H283.601C287.691 145.528 295.645 147.558 299.508 148.912C333.822 161.096 336.094 207.349 304.507 224.27L331.322 271.651V271.426Z" fill="#263B7F"/>
<path d="M174.751 245.479H221.563L222.927 246.833V271.2H146.118C146.118 271.2 147.027 270.072 147.027 269.847V145.302H173.387L174.751 146.656V245.479Z" fill="#263B7F"/>
<path d="M536.07 146.204L482.894 280.451L462.215 256.309L506.073 146.204H536.07Z" fill="#263B7F"/>
<path d="M586.063 271.426H554.704L523.571 191.329L537.887 152.748L586.063 271.426Z" fill="#263B7F"/>
<path d="M289.282 320.161C291.327 320.386 296.554 321.966 298.599 322.868C313.37 329.186 311.097 353.553 296.327 358.291L311.097 385.366H297.69L284.055 360.773H274.057V385.366H262.013V320.161C270.648 320.837 280.874 319.258 289.282 320.161ZM273.829 350.394C284.283 351.297 300.19 350.394 295.645 335.729C294.963 333.472 290.191 330.314 288.146 330.314H273.829V350.62V350.394Z" fill="#263B7F"/>
<path d="M535.16 385.366V320.161H558.794C560.157 320.161 568.338 322.868 570.156 323.771C595.153 335.954 587.881 385.592 558.794 385.592H535.16V385.366ZM547.204 375.213C581.064 381.53 581.291 323.996 547.204 330.088V375.213Z" fill="#263B7F"/>
<path d="M521.299 320.161V330.314H494.938L493.575 331.667V345.431L494.938 346.784H517.663C517.208 350.169 518.799 354.456 516.299 356.937H493.575V373.859L494.938 375.213H522.207V385.366H481.531V320.161H521.299Z" fill="#263B7F"/>
<path d="M247.924 320.161V330.088H220.2V346.784H243.379V356.937H220.2V375.213H248.833V385.366H208.156V320.161H247.924Z" fill="#263B7F"/>
<path d="M171.797 319.484C180.659 318.13 190.204 320.161 196.112 327.155L190.204 334.601C169.297 321.063 157.026 339.339 160.207 359.87C162.707 375.89 179.75 381.53 191.112 369.798L196.794 376.115V377.92C192.93 382.207 187.477 385.366 181.795 386.043C137.71 391.232 137.028 324.448 172.024 319.258L171.797 319.484Z" fill="#263B7F"/>
<path d="M442.445 320.161V330.088H414.721V348.589H437.9V358.742H414.721V385.366H402.677V320.161H442.445Z" fill="#263B7F"/>
<path d="M363.818 330.088H345.866L344.502 331.442V385.14H332.458V329.862H313.824V319.709H362.455C365.182 322.191 363.364 326.478 363.818 329.862V330.088Z" fill="#263B7F"/>
<path d="M386.088 320.161H374.044V385.366H386.088V320.161Z" fill="#263B7F"/>
<path d="M465.624 320.161H453.58V385.366H465.624V320.161Z" fill="#263B7F"/>
<path d="M198.612 461.401C221.79 456.663 223.836 494.342 203.838 496.147C183.841 497.952 182.25 464.786 198.612 461.401ZM207.929 488.476C213.155 483.512 212.246 467.042 203.156 466.591C187.022 465.914 194.748 500.66 207.929 488.476Z" fill="#263B7F"/>
<path d="M426.538 461.401C451.989 457.34 449.717 502.239 425.401 495.245C410.403 490.958 411.54 463.883 426.538 461.401ZM424.265 488.476C437.445 500.66 445.172 465.914 429.037 466.591C419.948 467.042 418.811 483.512 424.265 488.476Z" fill="#263B7F"/>
<path d="M408.813 479.902C412.448 484.866 410.403 491.86 405.177 494.568C398.359 498.178 391.769 495.47 386.088 491.184L388.815 487.122C388.815 487.122 396.087 493.214 401.995 489.83C410.631 484.866 394.723 480.579 391.996 478.774C380.407 471.103 393.133 455.986 405.858 463.206C410.176 465.688 409.267 467.042 405.858 469.749C402.904 467.042 398.359 465.688 395.178 468.396C389.951 474.713 406.086 476.518 408.813 480.128V479.902Z" fill="#263B7F"/>
<path d="M167.706 472.908C170.888 476.067 180.205 476.067 182.477 481.707C188.386 495.922 167.706 500.209 159.526 491.635L162.48 487.122C166.797 489.83 173.615 493.665 176.796 487.574C177.932 480.354 162.48 481.256 161.116 473.81C158.617 460.724 174.978 457.566 182.25 465.688L179.069 469.524C175.205 463.883 162.252 467.719 167.706 473.134V472.908Z" fill="#263B7F"/>
<path d="M293.145 462.304C311.325 458.242 311.552 495.245 296.554 496.147C281.556 497.05 281.329 465.011 293.145 462.304ZM298.599 467.944C289.964 460.047 287.01 489.379 294.736 490.732C303.371 492.312 301.553 470.652 298.599 467.944Z" fill="#263B7F"/>
<path d="M247.924 480.579C231.107 491.861 225.426 463.206 241.106 462.078C263.376 460.499 255.195 510.587 232.244 492.086L235.652 488.927C243.379 493.891 248.378 488.476 247.924 480.579ZM238.834 477.421C247.696 481.482 251.332 471.554 243.606 466.816C237.016 465.688 236.561 472.908 238.834 477.421Z" fill="#263B7F"/>
<path d="M267.239 462.304C287.464 458.919 283.828 503.819 265.421 495.019C255.423 490.281 255.423 464.334 267.239 462.304ZM266.785 467.944C263.376 471.103 263.376 487.348 266.785 489.83C278.374 497.952 276.556 458.694 266.785 467.944Z" fill="#263B7F"/>
<path d="M546.977 462.304C563.566 459.371 563.566 488.702 555.158 494.342C537.433 506.075 531.525 465.011 546.977 462.304ZM546.523 467.944C543.114 470.877 542.205 490.281 549.477 491.184C558.339 491.184 555.385 459.596 546.523 467.944Z" fill="#263B7F"/>
<path d="M521.071 462.304C538.796 459.371 538.342 495.696 523.571 496.147C508.8 496.599 508.118 464.334 521.071 462.304ZM521.98 466.816C516.299 468.396 515.39 491.409 523.571 491.184C530.161 490.958 530.616 464.334 521.98 466.816Z" fill="#263B7F"/>
<path d="M504.483 462.981V482.384H509.027V486.897H504.483V495.245H498.801V486.897H484.031C484.031 484.866 484.031 483.512 484.712 481.707C485.167 480.579 495.166 465.011 496.074 464.334C498.574 462.078 501.301 463.206 504.483 462.981ZM499.029 482.384V469.524L490.621 482.384H499.029Z" fill="#263B7F"/>
<path d="M474.941 462.981V486.446C474.941 486.446 472.896 488.928 474.941 490.056L480.622 490.507V495.019H461.079V490.507H468.578V469.298H461.988C460.852 462.981 470.396 462.755 474.941 462.755V462.981Z" fill="#263B7F"/>
<path d="M579.7 462.981V490.507H586.29V495.019H567.202L565.838 492.989L566.747 490.732L573.11 490.281L574.019 488.476C574.019 488.476 573.11 486.897 573.11 486.671V469.749H567.656V465.237L579.7 463.432V462.981Z" fill="#263B7F"/>
<path d="M325.868 462.981V490.507H332.459V495.019H312.916V490.507H320.415V469.298H313.825C312.461 463.432 321.551 462.981 325.868 462.755V462.981Z" fill="#263B7F"/>
<path d="M380.634 462.078H374.044V495.245H380.634V462.078Z" fill="#263B7F"/>
<path d="M152.481 462.078V491.861C152.481 491.861 153.844 493.891 153.39 495.019H146.8V461.853H152.254L152.481 462.078Z" fill="#263B7F"/>
<path d="M356.319 474.939V483.287L348.82 482.836C347.229 481.707 348.138 476.969 347.911 474.939H356.319Z" fill="#263B7F"/>
</svg>
